%TF.GenerationSoftware,KiCad,Pcbnew,10.0.6*%
%TF.CreationDate,2026-10-09T16:56:38+05:30*%
%TF.ProjectId,atlastag,61746c61-7374-4616-972e-6b696361645f,v0.1.0-draft*%
%TF.SameCoordinates,Original*%
%TF.FileFunction,Legend,Top*%
%TF.FilePolarity,Positive*%
%FSLAX46Y46*%
G04 Gerber Fmt 4.6, Leading zero omitted, Abs format (unit mm)*
G04 Created by KiCad (PCBNEW 10.0.6) date 2026-10-09 16:56:38*
%MOMM*%
%LPD*%
G01*
G04 APERTURE LIST*
%ADD10C,0.150000*%
%ADD11C,0.120000*%
G04 APERTURE END LIST*
D10*
X117857142Y-103524819D02*
X117523809Y-103048628D01*
X117285714Y-103524819D02*
X117285714Y-102524819D01*
X117285714Y-102524819D02*
X117666666Y-102524819D01*
X117666666Y-102524819D02*
X117761904Y-102572438D01*
X117761904Y-102572438D02*
X117809523Y-102620057D01*
X117809523Y-102620057D02*
X117857142Y-102715295D01*
X117857142Y-102715295D02*
X117857142Y-102858152D01*
X117857142Y-102858152D02*
X117809523Y-102953390D01*
X117809523Y-102953390D02*
X117761904Y-103001009D01*
X117761904Y-103001009D02*
X117666666Y-103048628D01*
X117666666Y-103048628D02*
X117285714Y-103048628D01*
X118809523Y-103524819D02*
X118238095Y-103524819D01*
X118523809Y-103524819D02*
X118523809Y-102524819D01*
X118523809Y-102524819D02*
X118428571Y-102667676D01*
X118428571Y-102667676D02*
X118333333Y-102762914D01*
X118333333Y-102762914D02*
X118238095Y-102810533D01*
X119142857Y-102524819D02*
X119761904Y-102524819D01*
X119761904Y-102524819D02*
X119428571Y-102905771D01*
X119428571Y-102905771D02*
X119571428Y-102905771D01*
X119571428Y-102905771D02*
X119666666Y-102953390D01*
X119666666Y-102953390D02*
X119714285Y-103001009D01*
X119714285Y-103001009D02*
X119761904Y-103096247D01*
X119761904Y-103096247D02*
X119761904Y-103334342D01*
X119761904Y-103334342D02*
X119714285Y-103429580D01*
X119714285Y-103429580D02*
X119666666Y-103477200D01*
X119666666Y-103477200D02*
X119571428Y-103524819D01*
X119571428Y-103524819D02*
X119285714Y-103524819D01*
X119285714Y-103524819D02*
X119190476Y-103477200D01*
X119190476Y-103477200D02*
X119142857Y-103429580D01*
X131333333Y-100524819D02*
X131000000Y-100048628D01*
X130761905Y-100524819D02*
X130761905Y-99524819D01*
X130761905Y-99524819D02*
X131142857Y-99524819D01*
X131142857Y-99524819D02*
X131238095Y-99572438D01*
X131238095Y-99572438D02*
X131285714Y-99620057D01*
X131285714Y-99620057D02*
X131333333Y-99715295D01*
X131333333Y-99715295D02*
X131333333Y-99858152D01*
X131333333Y-99858152D02*
X131285714Y-99953390D01*
X131285714Y-99953390D02*
X131238095Y-100001009D01*
X131238095Y-100001009D02*
X131142857Y-100048628D01*
X131142857Y-100048628D02*
X130761905Y-100048628D01*
X131809524Y-100524819D02*
X132000000Y-100524819D01*
X132000000Y-100524819D02*
X132095238Y-100477200D01*
X132095238Y-100477200D02*
X132142857Y-100429580D01*
X132142857Y-100429580D02*
X132238095Y-100286723D01*
X132238095Y-100286723D02*
X132285714Y-100096247D01*
X132285714Y-100096247D02*
X132285714Y-99715295D01*
X132285714Y-99715295D02*
X132238095Y-99620057D01*
X132238095Y-99620057D02*
X132190476Y-99572438D01*
X132190476Y-99572438D02*
X132095238Y-99524819D01*
X132095238Y-99524819D02*
X131904762Y-99524819D01*
X131904762Y-99524819D02*
X131809524Y-99572438D01*
X131809524Y-99572438D02*
X131761905Y-99620057D01*
X131761905Y-99620057D02*
X131714286Y-99715295D01*
X131714286Y-99715295D02*
X131714286Y-99953390D01*
X131714286Y-99953390D02*
X131761905Y-100048628D01*
X131761905Y-100048628D02*
X131809524Y-100096247D01*
X131809524Y-100096247D02*
X131904762Y-100143866D01*
X131904762Y-100143866D02*
X132095238Y-100143866D01*
X132095238Y-100143866D02*
X132190476Y-100096247D01*
X132190476Y-100096247D02*
X132238095Y-100048628D01*
X132238095Y-100048628D02*
X132285714Y-99953390D01*
X112333333Y-100524819D02*
X112000000Y-100048628D01*
X111761905Y-100524819D02*
X111761905Y-99524819D01*
X111761905Y-99524819D02*
X112142857Y-99524819D01*
X112142857Y-99524819D02*
X112238095Y-99572438D01*
X112238095Y-99572438D02*
X112285714Y-99620057D01*
X112285714Y-99620057D02*
X112333333Y-99715295D01*
X112333333Y-99715295D02*
X112333333Y-99858152D01*
X112333333Y-99858152D02*
X112285714Y-99953390D01*
X112285714Y-99953390D02*
X112238095Y-100001009D01*
X112238095Y-100001009D02*
X112142857Y-100048628D01*
X112142857Y-100048628D02*
X111761905Y-100048628D01*
X113190476Y-99524819D02*
X113000000Y-99524819D01*
X113000000Y-99524819D02*
X112904762Y-99572438D01*
X112904762Y-99572438D02*
X112857143Y-99620057D01*
X112857143Y-99620057D02*
X112761905Y-99762914D01*
X112761905Y-99762914D02*
X112714286Y-99953390D01*
X112714286Y-99953390D02*
X112714286Y-100334342D01*
X112714286Y-100334342D02*
X112761905Y-100429580D01*
X112761905Y-100429580D02*
X112809524Y-100477200D01*
X112809524Y-100477200D02*
X112904762Y-100524819D01*
X112904762Y-100524819D02*
X113095238Y-100524819D01*
X113095238Y-100524819D02*
X113190476Y-100477200D01*
X113190476Y-100477200D02*
X113238095Y-100429580D01*
X113238095Y-100429580D02*
X113285714Y-100334342D01*
X113285714Y-100334342D02*
X113285714Y-100096247D01*
X113285714Y-100096247D02*
X113238095Y-100001009D01*
X113238095Y-100001009D02*
X113190476Y-99953390D01*
X113190476Y-99953390D02*
X113095238Y-99905771D01*
X113095238Y-99905771D02*
X112904762Y-99905771D01*
X112904762Y-99905771D02*
X112809524Y-99953390D01*
X112809524Y-99953390D02*
X112761905Y-100001009D01*
X112761905Y-100001009D02*
X112714286Y-100096247D01*
X117738095Y-88054819D02*
X117738095Y-88864342D01*
X117738095Y-88864342D02*
X117785714Y-88959580D01*
X117785714Y-88959580D02*
X117833333Y-89007200D01*
X117833333Y-89007200D02*
X117928571Y-89054819D01*
X117928571Y-89054819D02*
X118119047Y-89054819D01*
X118119047Y-89054819D02*
X118214285Y-89007200D01*
X118214285Y-89007200D02*
X118261904Y-88959580D01*
X118261904Y-88959580D02*
X118309523Y-88864342D01*
X118309523Y-88864342D02*
X118309523Y-88054819D01*
X118738095Y-88150057D02*
X118785714Y-88102438D01*
X118785714Y-88102438D02*
X118880952Y-88054819D01*
X118880952Y-88054819D02*
X119119047Y-88054819D01*
X119119047Y-88054819D02*
X119214285Y-88102438D01*
X119214285Y-88102438D02*
X119261904Y-88150057D01*
X119261904Y-88150057D02*
X119309523Y-88245295D01*
X119309523Y-88245295D02*
X119309523Y-88340533D01*
X119309523Y-88340533D02*
X119261904Y-88483390D01*
X119261904Y-88483390D02*
X118690476Y-89054819D01*
X118690476Y-89054819D02*
X119309523Y-89054819D01*
X113524819Y-88666666D02*
X113048628Y-88999999D01*
X113524819Y-89238094D02*
X112524819Y-89238094D01*
X112524819Y-89238094D02*
X112524819Y-88857142D01*
X112524819Y-88857142D02*
X112572438Y-88761904D01*
X112572438Y-88761904D02*
X112620057Y-88714285D01*
X112620057Y-88714285D02*
X112715295Y-88666666D01*
X112715295Y-88666666D02*
X112858152Y-88666666D01*
X112858152Y-88666666D02*
X112953390Y-88714285D01*
X112953390Y-88714285D02*
X113001009Y-88761904D01*
X113001009Y-88761904D02*
X113048628Y-88857142D01*
X113048628Y-88857142D02*
X113048628Y-89238094D01*
X112858152Y-87809523D02*
X113524819Y-87809523D01*
X112477200Y-88047618D02*
X113191485Y-88285713D01*
X113191485Y-88285713D02*
X113191485Y-87666666D01*
X105524819Y-86166666D02*
X105048628Y-86499999D01*
X105524819Y-86738094D02*
X104524819Y-86738094D01*
X104524819Y-86738094D02*
X104524819Y-86357142D01*
X104524819Y-86357142D02*
X104572438Y-86261904D01*
X104572438Y-86261904D02*
X104620057Y-86214285D01*
X104620057Y-86214285D02*
X104715295Y-86166666D01*
X104715295Y-86166666D02*
X104858152Y-86166666D01*
X104858152Y-86166666D02*
X104953390Y-86214285D01*
X104953390Y-86214285D02*
X105001009Y-86261904D01*
X105001009Y-86261904D02*
X105048628Y-86357142D01*
X105048628Y-86357142D02*
X105048628Y-86738094D01*
X105524819Y-85214285D02*
X105524819Y-85785713D01*
X105524819Y-85499999D02*
X104524819Y-85499999D01*
X104524819Y-85499999D02*
X104667676Y-85595237D01*
X104667676Y-85595237D02*
X104762914Y-85690475D01*
X104762914Y-85690475D02*
X104810533Y-85785713D01*
X115524819Y-87166666D02*
X115048628Y-87499999D01*
X115524819Y-87738094D02*
X114524819Y-87738094D01*
X114524819Y-87738094D02*
X114524819Y-87357142D01*
X114524819Y-87357142D02*
X114572438Y-87261904D01*
X114572438Y-87261904D02*
X114620057Y-87214285D01*
X114620057Y-87214285D02*
X114715295Y-87166666D01*
X114715295Y-87166666D02*
X114858152Y-87166666D01*
X114858152Y-87166666D02*
X114953390Y-87214285D01*
X114953390Y-87214285D02*
X115001009Y-87261904D01*
X115001009Y-87261904D02*
X115048628Y-87357142D01*
X115048628Y-87357142D02*
X115048628Y-87738094D01*
X114953390Y-86595237D02*
X114905771Y-86690475D01*
X114905771Y-86690475D02*
X114858152Y-86738094D01*
X114858152Y-86738094D02*
X114762914Y-86785713D01*
X114762914Y-86785713D02*
X114715295Y-86785713D01*
X114715295Y-86785713D02*
X114620057Y-86738094D01*
X114620057Y-86738094D02*
X114572438Y-86690475D01*
X114572438Y-86690475D02*
X114524819Y-86595237D01*
X114524819Y-86595237D02*
X114524819Y-86404761D01*
X114524819Y-86404761D02*
X114572438Y-86309523D01*
X114572438Y-86309523D02*
X114620057Y-86261904D01*
X114620057Y-86261904D02*
X114715295Y-86214285D01*
X114715295Y-86214285D02*
X114762914Y-86214285D01*
X114762914Y-86214285D02*
X114858152Y-86261904D01*
X114858152Y-86261904D02*
X114905771Y-86309523D01*
X114905771Y-86309523D02*
X114953390Y-86404761D01*
X114953390Y-86404761D02*
X114953390Y-86595237D01*
X114953390Y-86595237D02*
X115001009Y-86690475D01*
X115001009Y-86690475D02*
X115048628Y-86738094D01*
X115048628Y-86738094D02*
X115143866Y-86785713D01*
X115143866Y-86785713D02*
X115334342Y-86785713D01*
X115334342Y-86785713D02*
X115429580Y-86738094D01*
X115429580Y-86738094D02*
X115477200Y-86690475D01*
X115477200Y-86690475D02*
X115524819Y-86595237D01*
X115524819Y-86595237D02*
X115524819Y-86404761D01*
X115524819Y-86404761D02*
X115477200Y-86309523D01*
X115477200Y-86309523D02*
X115429580Y-86261904D01*
X115429580Y-86261904D02*
X115334342Y-86214285D01*
X115334342Y-86214285D02*
X115143866Y-86214285D01*
X115143866Y-86214285D02*
X115048628Y-86261904D01*
X115048628Y-86261904D02*
X115001009Y-86309523D01*
X115001009Y-86309523D02*
X114953390Y-86404761D01*
X117524819Y-88666666D02*
X117048628Y-88999999D01*
X117524819Y-89238094D02*
X116524819Y-89238094D01*
X116524819Y-89238094D02*
X116524819Y-88857142D01*
X116524819Y-88857142D02*
X116572438Y-88761904D01*
X116572438Y-88761904D02*
X116620057Y-88714285D01*
X116620057Y-88714285D02*
X116715295Y-88666666D01*
X116715295Y-88666666D02*
X116858152Y-88666666D01*
X116858152Y-88666666D02*
X116953390Y-88714285D01*
X116953390Y-88714285D02*
X117001009Y-88761904D01*
X117001009Y-88761904D02*
X117048628Y-88857142D01*
X117048628Y-88857142D02*
X117048628Y-89238094D01*
X116524819Y-88333332D02*
X116524819Y-87666666D01*
X116524819Y-87666666D02*
X117524819Y-88095237D01*
X120333333Y-95429580D02*
X120285714Y-95477200D01*
X120285714Y-95477200D02*
X120142857Y-95524819D01*
X120142857Y-95524819D02*
X120047619Y-95524819D01*
X120047619Y-95524819D02*
X119904762Y-95477200D01*
X119904762Y-95477200D02*
X119809524Y-95381961D01*
X119809524Y-95381961D02*
X119761905Y-95286723D01*
X119761905Y-95286723D02*
X119714286Y-95096247D01*
X119714286Y-95096247D02*
X119714286Y-94953390D01*
X119714286Y-94953390D02*
X119761905Y-94762914D01*
X119761905Y-94762914D02*
X119809524Y-94667676D01*
X119809524Y-94667676D02*
X119904762Y-94572438D01*
X119904762Y-94572438D02*
X120047619Y-94524819D01*
X120047619Y-94524819D02*
X120142857Y-94524819D01*
X120142857Y-94524819D02*
X120285714Y-94572438D01*
X120285714Y-94572438D02*
X120333333Y-94620057D01*
X121190476Y-94524819D02*
X121000000Y-94524819D01*
X121000000Y-94524819D02*
X120904762Y-94572438D01*
X120904762Y-94572438D02*
X120857143Y-94620057D01*
X120857143Y-94620057D02*
X120761905Y-94762914D01*
X120761905Y-94762914D02*
X120714286Y-94953390D01*
X120714286Y-94953390D02*
X120714286Y-95334342D01*
X120714286Y-95334342D02*
X120761905Y-95429580D01*
X120761905Y-95429580D02*
X120809524Y-95477200D01*
X120809524Y-95477200D02*
X120904762Y-95524819D01*
X120904762Y-95524819D02*
X121095238Y-95524819D01*
X121095238Y-95524819D02*
X121190476Y-95477200D01*
X121190476Y-95477200D02*
X121238095Y-95429580D01*
X121238095Y-95429580D02*
X121285714Y-95334342D01*
X121285714Y-95334342D02*
X121285714Y-95096247D01*
X121285714Y-95096247D02*
X121238095Y-95001009D01*
X121238095Y-95001009D02*
X121190476Y-94953390D01*
X121190476Y-94953390D02*
X121095238Y-94905771D01*
X121095238Y-94905771D02*
X120904762Y-94905771D01*
X120904762Y-94905771D02*
X120809524Y-94953390D01*
X120809524Y-94953390D02*
X120761905Y-95001009D01*
X120761905Y-95001009D02*
X120714286Y-95096247D01*
X115761905Y-83524819D02*
X115761905Y-82524819D01*
X115761905Y-82524819D02*
X116000000Y-82524819D01*
X116000000Y-82524819D02*
X116142857Y-82572438D01*
X116142857Y-82572438D02*
X116238095Y-82667676D01*
X116238095Y-82667676D02*
X116285714Y-82762914D01*
X116285714Y-82762914D02*
X116333333Y-82953390D01*
X116333333Y-82953390D02*
X116333333Y-83096247D01*
X116333333Y-83096247D02*
X116285714Y-83286723D01*
X116285714Y-83286723D02*
X116238095Y-83381961D01*
X116238095Y-83381961D02*
X116142857Y-83477200D01*
X116142857Y-83477200D02*
X116000000Y-83524819D01*
X116000000Y-83524819D02*
X115761905Y-83524819D01*
X116714286Y-82620057D02*
X116761905Y-82572438D01*
X116761905Y-82572438D02*
X116857143Y-82524819D01*
X116857143Y-82524819D02*
X117095238Y-82524819D01*
X117095238Y-82524819D02*
X117190476Y-82572438D01*
X117190476Y-82572438D02*
X117238095Y-82620057D01*
X117238095Y-82620057D02*
X117285714Y-82715295D01*
X117285714Y-82715295D02*
X117285714Y-82810533D01*
X117285714Y-82810533D02*
X117238095Y-82953390D01*
X117238095Y-82953390D02*
X116666667Y-83524819D01*
X116666667Y-83524819D02*
X117285714Y-83524819D01*
X104666667Y-107857200D02*
X104809524Y-107904819D01*
X104809524Y-107904819D02*
X105047619Y-107904819D01*
X105047619Y-107904819D02*
X105142857Y-107857200D01*
X105142857Y-107857200D02*
X105190476Y-107809580D01*
X105190476Y-107809580D02*
X105238095Y-107714342D01*
X105238095Y-107714342D02*
X105238095Y-107619104D01*
X105238095Y-107619104D02*
X105190476Y-107523866D01*
X105190476Y-107523866D02*
X105142857Y-107476247D01*
X105142857Y-107476247D02*
X105047619Y-107428628D01*
X105047619Y-107428628D02*
X104857143Y-107381009D01*
X104857143Y-107381009D02*
X104761905Y-107333390D01*
X104761905Y-107333390D02*
X104714286Y-107285771D01*
X104714286Y-107285771D02*
X104666667Y-107190533D01*
X104666667Y-107190533D02*
X104666667Y-107095295D01*
X104666667Y-107095295D02*
X104714286Y-107000057D01*
X104714286Y-107000057D02*
X104761905Y-106952438D01*
X104761905Y-106952438D02*
X104857143Y-106904819D01*
X104857143Y-106904819D02*
X105095238Y-106904819D01*
X105095238Y-106904819D02*
X105238095Y-106952438D01*
X105571429Y-106904819D02*
X105809524Y-107904819D01*
X105809524Y-107904819D02*
X106000000Y-107190533D01*
X106000000Y-107190533D02*
X106190476Y-107904819D01*
X106190476Y-107904819D02*
X106428572Y-106904819D01*
X107333333Y-107904819D02*
X106761905Y-107904819D01*
X107047619Y-107904819D02*
X107047619Y-106904819D01*
X107047619Y-106904819D02*
X106952381Y-107047676D01*
X106952381Y-107047676D02*
X106857143Y-107142914D01*
X106857143Y-107142914D02*
X106761905Y-107190533D01*
X123833333Y-83509580D02*
X123785714Y-83557200D01*
X123785714Y-83557200D02*
X123642857Y-83604819D01*
X123642857Y-83604819D02*
X123547619Y-83604819D01*
X123547619Y-83604819D02*
X123404762Y-83557200D01*
X123404762Y-83557200D02*
X123309524Y-83461961D01*
X123309524Y-83461961D02*
X123261905Y-83366723D01*
X123261905Y-83366723D02*
X123214286Y-83176247D01*
X123214286Y-83176247D02*
X123214286Y-83033390D01*
X123214286Y-83033390D02*
X123261905Y-82842914D01*
X123261905Y-82842914D02*
X123309524Y-82747676D01*
X123309524Y-82747676D02*
X123404762Y-82652438D01*
X123404762Y-82652438D02*
X123547619Y-82604819D01*
X123547619Y-82604819D02*
X123642857Y-82604819D01*
X123642857Y-82604819D02*
X123785714Y-82652438D01*
X123785714Y-82652438D02*
X123833333Y-82700057D01*
X124166667Y-82604819D02*
X124785714Y-82604819D01*
X124785714Y-82604819D02*
X124452381Y-82985771D01*
X124452381Y-82985771D02*
X124595238Y-82985771D01*
X124595238Y-82985771D02*
X124690476Y-83033390D01*
X124690476Y-83033390D02*
X124738095Y-83081009D01*
X124738095Y-83081009D02*
X124785714Y-83176247D01*
X124785714Y-83176247D02*
X124785714Y-83414342D01*
X124785714Y-83414342D02*
X124738095Y-83509580D01*
X124738095Y-83509580D02*
X124690476Y-83557200D01*
X124690476Y-83557200D02*
X124595238Y-83604819D01*
X124595238Y-83604819D02*
X124309524Y-83604819D01*
X124309524Y-83604819D02*
X124214286Y-83557200D01*
X124214286Y-83557200D02*
X124166667Y-83509580D01*
X115857142Y-103524819D02*
X115523809Y-103048628D01*
X115285714Y-103524819D02*
X115285714Y-102524819D01*
X115285714Y-102524819D02*
X115666666Y-102524819D01*
X115666666Y-102524819D02*
X115761904Y-102572438D01*
X115761904Y-102572438D02*
X115809523Y-102620057D01*
X115809523Y-102620057D02*
X115857142Y-102715295D01*
X115857142Y-102715295D02*
X115857142Y-102858152D01*
X115857142Y-102858152D02*
X115809523Y-102953390D01*
X115809523Y-102953390D02*
X115761904Y-103001009D01*
X115761904Y-103001009D02*
X115666666Y-103048628D01*
X115666666Y-103048628D02*
X115285714Y-103048628D01*
X116809523Y-103524819D02*
X116238095Y-103524819D01*
X116523809Y-103524819D02*
X116523809Y-102524819D01*
X116523809Y-102524819D02*
X116428571Y-102667676D01*
X116428571Y-102667676D02*
X116333333Y-102762914D01*
X116333333Y-102762914D02*
X116238095Y-102810533D01*
X117190476Y-102620057D02*
X117238095Y-102572438D01*
X117238095Y-102572438D02*
X117333333Y-102524819D01*
X117333333Y-102524819D02*
X117571428Y-102524819D01*
X117571428Y-102524819D02*
X117666666Y-102572438D01*
X117666666Y-102572438D02*
X117714285Y-102620057D01*
X117714285Y-102620057D02*
X117761904Y-102715295D01*
X117761904Y-102715295D02*
X117761904Y-102810533D01*
X117761904Y-102810533D02*
X117714285Y-102953390D01*
X117714285Y-102953390D02*
X117142857Y-103524819D01*
X117142857Y-103524819D02*
X117761904Y-103524819D01*
X109761905Y-83524819D02*
X109761905Y-82524819D01*
X109761905Y-82524819D02*
X110000000Y-82524819D01*
X110000000Y-82524819D02*
X110142857Y-82572438D01*
X110142857Y-82572438D02*
X110238095Y-82667676D01*
X110238095Y-82667676D02*
X110285714Y-82762914D01*
X110285714Y-82762914D02*
X110333333Y-82953390D01*
X110333333Y-82953390D02*
X110333333Y-83096247D01*
X110333333Y-83096247D02*
X110285714Y-83286723D01*
X110285714Y-83286723D02*
X110238095Y-83381961D01*
X110238095Y-83381961D02*
X110142857Y-83477200D01*
X110142857Y-83477200D02*
X110000000Y-83524819D01*
X110000000Y-83524819D02*
X109761905Y-83524819D01*
X111285714Y-83524819D02*
X110714286Y-83524819D01*
X111000000Y-83524819D02*
X111000000Y-82524819D01*
X111000000Y-82524819D02*
X110904762Y-82667676D01*
X110904762Y-82667676D02*
X110809524Y-82762914D01*
X110809524Y-82762914D02*
X110714286Y-82810533D01*
X138429580Y-105666666D02*
X138477200Y-105714285D01*
X138477200Y-105714285D02*
X138524819Y-105857142D01*
X138524819Y-105857142D02*
X138524819Y-105952380D01*
X138524819Y-105952380D02*
X138477200Y-106095237D01*
X138477200Y-106095237D02*
X138381961Y-106190475D01*
X138381961Y-106190475D02*
X138286723Y-106238094D01*
X138286723Y-106238094D02*
X138096247Y-106285713D01*
X138096247Y-106285713D02*
X137953390Y-106285713D01*
X137953390Y-106285713D02*
X137762914Y-106238094D01*
X137762914Y-106238094D02*
X137667676Y-106190475D01*
X137667676Y-106190475D02*
X137572438Y-106095237D01*
X137572438Y-106095237D02*
X137524819Y-105952380D01*
X137524819Y-105952380D02*
X137524819Y-105857142D01*
X137524819Y-105857142D02*
X137572438Y-105714285D01*
X137572438Y-105714285D02*
X137620057Y-105666666D01*
X137953390Y-105095237D02*
X137905771Y-105190475D01*
X137905771Y-105190475D02*
X137858152Y-105238094D01*
X137858152Y-105238094D02*
X137762914Y-105285713D01*
X137762914Y-105285713D02*
X137715295Y-105285713D01*
X137715295Y-105285713D02*
X137620057Y-105238094D01*
X137620057Y-105238094D02*
X137572438Y-105190475D01*
X137572438Y-105190475D02*
X137524819Y-105095237D01*
X137524819Y-105095237D02*
X137524819Y-104904761D01*
X137524819Y-104904761D02*
X137572438Y-104809523D01*
X137572438Y-104809523D02*
X137620057Y-104761904D01*
X137620057Y-104761904D02*
X137715295Y-104714285D01*
X137715295Y-104714285D02*
X137762914Y-104714285D01*
X137762914Y-104714285D02*
X137858152Y-104761904D01*
X137858152Y-104761904D02*
X137905771Y-104809523D01*
X137905771Y-104809523D02*
X137953390Y-104904761D01*
X137953390Y-104904761D02*
X137953390Y-105095237D01*
X137953390Y-105095237D02*
X138001009Y-105190475D01*
X138001009Y-105190475D02*
X138048628Y-105238094D01*
X138048628Y-105238094D02*
X138143866Y-105285713D01*
X138143866Y-105285713D02*
X138334342Y-105285713D01*
X138334342Y-105285713D02*
X138429580Y-105238094D01*
X138429580Y-105238094D02*
X138477200Y-105190475D01*
X138477200Y-105190475D02*
X138524819Y-105095237D01*
X138524819Y-105095237D02*
X138524819Y-104904761D01*
X138524819Y-104904761D02*
X138477200Y-104809523D01*
X138477200Y-104809523D02*
X138429580Y-104761904D01*
X138429580Y-104761904D02*
X138334342Y-104714285D01*
X138334342Y-104714285D02*
X138143866Y-104714285D01*
X138143866Y-104714285D02*
X138048628Y-104761904D01*
X138048628Y-104761904D02*
X138001009Y-104809523D01*
X138001009Y-104809523D02*
X137953390Y-104904761D01*
X111738095Y-88054819D02*
X111738095Y-88864342D01*
X111738095Y-88864342D02*
X111785714Y-88959580D01*
X111785714Y-88959580D02*
X111833333Y-89007200D01*
X111833333Y-89007200D02*
X111928571Y-89054819D01*
X111928571Y-89054819D02*
X112119047Y-89054819D01*
X112119047Y-89054819D02*
X112214285Y-89007200D01*
X112214285Y-89007200D02*
X112261904Y-88959580D01*
X112261904Y-88959580D02*
X112309523Y-88864342D01*
X112309523Y-88864342D02*
X112309523Y-88054819D01*
X113309523Y-89054819D02*
X112738095Y-89054819D01*
X113023809Y-89054819D02*
X113023809Y-88054819D01*
X113023809Y-88054819D02*
X112928571Y-88197676D01*
X112928571Y-88197676D02*
X112833333Y-88292914D01*
X112833333Y-88292914D02*
X112738095Y-88340533D01*
X98309819Y-92333333D02*
X99024104Y-92333333D01*
X99024104Y-92333333D02*
X99166961Y-92380952D01*
X99166961Y-92380952D02*
X99262200Y-92476190D01*
X99262200Y-92476190D02*
X99309819Y-92619047D01*
X99309819Y-92619047D02*
X99309819Y-92714285D01*
X99309819Y-91333333D02*
X99309819Y-91904761D01*
X99309819Y-91619047D02*
X98309819Y-91619047D01*
X98309819Y-91619047D02*
X98452676Y-91714285D01*
X98452676Y-91714285D02*
X98547914Y-91809523D01*
X98547914Y-91809523D02*
X98595533Y-91904761D01*
X107524819Y-86166666D02*
X107048628Y-86499999D01*
X107524819Y-86738094D02*
X106524819Y-86738094D01*
X106524819Y-86738094D02*
X106524819Y-86357142D01*
X106524819Y-86357142D02*
X106572438Y-86261904D01*
X106572438Y-86261904D02*
X106620057Y-86214285D01*
X106620057Y-86214285D02*
X106715295Y-86166666D01*
X106715295Y-86166666D02*
X106858152Y-86166666D01*
X106858152Y-86166666D02*
X106953390Y-86214285D01*
X106953390Y-86214285D02*
X107001009Y-86261904D01*
X107001009Y-86261904D02*
X107048628Y-86357142D01*
X107048628Y-86357142D02*
X107048628Y-86738094D01*
X106620057Y-85785713D02*
X106572438Y-85738094D01*
X106572438Y-85738094D02*
X106524819Y-85642856D01*
X106524819Y-85642856D02*
X106524819Y-85404761D01*
X106524819Y-85404761D02*
X106572438Y-85309523D01*
X106572438Y-85309523D02*
X106620057Y-85261904D01*
X106620057Y-85261904D02*
X106715295Y-85214285D01*
X106715295Y-85214285D02*
X106810533Y-85214285D01*
X106810533Y-85214285D02*
X106953390Y-85261904D01*
X106953390Y-85261904D02*
X107524819Y-85833332D01*
X107524819Y-85833332D02*
X107524819Y-85214285D01*
X117666666Y-105574819D02*
X117666666Y-106289104D01*
X117666666Y-106289104D02*
X117619047Y-106431961D01*
X117619047Y-106431961D02*
X117523809Y-106527200D01*
X117523809Y-106527200D02*
X117380952Y-106574819D01*
X117380952Y-106574819D02*
X117285714Y-106574819D01*
X118047619Y-105574819D02*
X118666666Y-105574819D01*
X118666666Y-105574819D02*
X118333333Y-105955771D01*
X118333333Y-105955771D02*
X118476190Y-105955771D01*
X118476190Y-105955771D02*
X118571428Y-106003390D01*
X118571428Y-106003390D02*
X118619047Y-106051009D01*
X118619047Y-106051009D02*
X118666666Y-106146247D01*
X118666666Y-106146247D02*
X118666666Y-106384342D01*
X118666666Y-106384342D02*
X118619047Y-106479580D01*
X118619047Y-106479580D02*
X118571428Y-106527200D01*
X118571428Y-106527200D02*
X118476190Y-106574819D01*
X118476190Y-106574819D02*
X118190476Y-106574819D01*
X118190476Y-106574819D02*
X118095238Y-106527200D01*
X118095238Y-106527200D02*
X118047619Y-106479580D01*
X134738095Y-101354819D02*
X134738095Y-102164342D01*
X134738095Y-102164342D02*
X134785714Y-102259580D01*
X134785714Y-102259580D02*
X134833333Y-102307200D01*
X134833333Y-102307200D02*
X134928571Y-102354819D01*
X134928571Y-102354819D02*
X135119047Y-102354819D01*
X135119047Y-102354819D02*
X135214285Y-102307200D01*
X135214285Y-102307200D02*
X135261904Y-102259580D01*
X135261904Y-102259580D02*
X135309523Y-102164342D01*
X135309523Y-102164342D02*
X135309523Y-101354819D01*
X135690476Y-101354819D02*
X136309523Y-101354819D01*
X136309523Y-101354819D02*
X135976190Y-101735771D01*
X135976190Y-101735771D02*
X136119047Y-101735771D01*
X136119047Y-101735771D02*
X136214285Y-101783390D01*
X136214285Y-101783390D02*
X136261904Y-101831009D01*
X136261904Y-101831009D02*
X136309523Y-101926247D01*
X136309523Y-101926247D02*
X136309523Y-102164342D01*
X136309523Y-102164342D02*
X136261904Y-102259580D01*
X136261904Y-102259580D02*
X136214285Y-102307200D01*
X136214285Y-102307200D02*
X136119047Y-102354819D01*
X136119047Y-102354819D02*
X135833333Y-102354819D01*
X135833333Y-102354819D02*
X135738095Y-102307200D01*
X135738095Y-102307200D02*
X135690476Y-102259580D01*
X138429580Y-102666666D02*
X138477200Y-102714285D01*
X138477200Y-102714285D02*
X138524819Y-102857142D01*
X138524819Y-102857142D02*
X138524819Y-102952380D01*
X138524819Y-102952380D02*
X138477200Y-103095237D01*
X138477200Y-103095237D02*
X138381961Y-103190475D01*
X138381961Y-103190475D02*
X138286723Y-103238094D01*
X138286723Y-103238094D02*
X138096247Y-103285713D01*
X138096247Y-103285713D02*
X137953390Y-103285713D01*
X137953390Y-103285713D02*
X137762914Y-103238094D01*
X137762914Y-103238094D02*
X137667676Y-103190475D01*
X137667676Y-103190475D02*
X137572438Y-103095237D01*
X137572438Y-103095237D02*
X137524819Y-102952380D01*
X137524819Y-102952380D02*
X137524819Y-102857142D01*
X137524819Y-102857142D02*
X137572438Y-102714285D01*
X137572438Y-102714285D02*
X137620057Y-102666666D01*
X137524819Y-102333332D02*
X137524819Y-101666666D01*
X137524819Y-101666666D02*
X138524819Y-102095237D01*
X116333333Y-95429580D02*
X116285714Y-95477200D01*
X116285714Y-95477200D02*
X116142857Y-95524819D01*
X116142857Y-95524819D02*
X116047619Y-95524819D01*
X116047619Y-95524819D02*
X115904762Y-95477200D01*
X115904762Y-95477200D02*
X115809524Y-95381961D01*
X115809524Y-95381961D02*
X115761905Y-95286723D01*
X115761905Y-95286723D02*
X115714286Y-95096247D01*
X115714286Y-95096247D02*
X115714286Y-94953390D01*
X115714286Y-94953390D02*
X115761905Y-94762914D01*
X115761905Y-94762914D02*
X115809524Y-94667676D01*
X115809524Y-94667676D02*
X115904762Y-94572438D01*
X115904762Y-94572438D02*
X116047619Y-94524819D01*
X116047619Y-94524819D02*
X116142857Y-94524819D01*
X116142857Y-94524819D02*
X116285714Y-94572438D01*
X116285714Y-94572438D02*
X116333333Y-94620057D01*
X117238095Y-94524819D02*
X116761905Y-94524819D01*
X116761905Y-94524819D02*
X116714286Y-95001009D01*
X116714286Y-95001009D02*
X116761905Y-94953390D01*
X116761905Y-94953390D02*
X116857143Y-94905771D01*
X116857143Y-94905771D02*
X117095238Y-94905771D01*
X117095238Y-94905771D02*
X117190476Y-94953390D01*
X117190476Y-94953390D02*
X117238095Y-95001009D01*
X117238095Y-95001009D02*
X117285714Y-95096247D01*
X117285714Y-95096247D02*
X117285714Y-95334342D01*
X117285714Y-95334342D02*
X117238095Y-95429580D01*
X117238095Y-95429580D02*
X117190476Y-95477200D01*
X117190476Y-95477200D02*
X117095238Y-95524819D01*
X117095238Y-95524819D02*
X116857143Y-95524819D01*
X116857143Y-95524819D02*
X116761905Y-95477200D01*
X116761905Y-95477200D02*
X116714286Y-95429580D01*
X110333333Y-100524819D02*
X110000000Y-100048628D01*
X109761905Y-100524819D02*
X109761905Y-99524819D01*
X109761905Y-99524819D02*
X110142857Y-99524819D01*
X110142857Y-99524819D02*
X110238095Y-99572438D01*
X110238095Y-99572438D02*
X110285714Y-99620057D01*
X110285714Y-99620057D02*
X110333333Y-99715295D01*
X110333333Y-99715295D02*
X110333333Y-99858152D01*
X110333333Y-99858152D02*
X110285714Y-99953390D01*
X110285714Y-99953390D02*
X110238095Y-100001009D01*
X110238095Y-100001009D02*
X110142857Y-100048628D01*
X110142857Y-100048628D02*
X109761905Y-100048628D01*
X111238095Y-99524819D02*
X110761905Y-99524819D01*
X110761905Y-99524819D02*
X110714286Y-100001009D01*
X110714286Y-100001009D02*
X110761905Y-99953390D01*
X110761905Y-99953390D02*
X110857143Y-99905771D01*
X110857143Y-99905771D02*
X111095238Y-99905771D01*
X111095238Y-99905771D02*
X111190476Y-99953390D01*
X111190476Y-99953390D02*
X111238095Y-100001009D01*
X111238095Y-100001009D02*
X111285714Y-100096247D01*
X111285714Y-100096247D02*
X111285714Y-100334342D01*
X111285714Y-100334342D02*
X111238095Y-100429580D01*
X111238095Y-100429580D02*
X111190476Y-100477200D01*
X111190476Y-100477200D02*
X111095238Y-100524819D01*
X111095238Y-100524819D02*
X110857143Y-100524819D01*
X110857143Y-100524819D02*
X110761905Y-100477200D01*
X110761905Y-100477200D02*
X110714286Y-100429580D01*
X112333333Y-95429580D02*
X112285714Y-95477200D01*
X112285714Y-95477200D02*
X112142857Y-95524819D01*
X112142857Y-95524819D02*
X112047619Y-95524819D01*
X112047619Y-95524819D02*
X111904762Y-95477200D01*
X111904762Y-95477200D02*
X111809524Y-95381961D01*
X111809524Y-95381961D02*
X111761905Y-95286723D01*
X111761905Y-95286723D02*
X111714286Y-95096247D01*
X111714286Y-95096247D02*
X111714286Y-94953390D01*
X111714286Y-94953390D02*
X111761905Y-94762914D01*
X111761905Y-94762914D02*
X111809524Y-94667676D01*
X111809524Y-94667676D02*
X111904762Y-94572438D01*
X111904762Y-94572438D02*
X112047619Y-94524819D01*
X112047619Y-94524819D02*
X112142857Y-94524819D01*
X112142857Y-94524819D02*
X112285714Y-94572438D01*
X112285714Y-94572438D02*
X112333333Y-94620057D01*
X112714286Y-94620057D02*
X112761905Y-94572438D01*
X112761905Y-94572438D02*
X112857143Y-94524819D01*
X112857143Y-94524819D02*
X113095238Y-94524819D01*
X113095238Y-94524819D02*
X113190476Y-94572438D01*
X113190476Y-94572438D02*
X113238095Y-94620057D01*
X113238095Y-94620057D02*
X113285714Y-94715295D01*
X113285714Y-94715295D02*
X113285714Y-94810533D01*
X113285714Y-94810533D02*
X113238095Y-94953390D01*
X113238095Y-94953390D02*
X112666667Y-95524819D01*
X112666667Y-95524819D02*
X113285714Y-95524819D01*
X107929580Y-89166666D02*
X107977200Y-89214285D01*
X107977200Y-89214285D02*
X108024819Y-89357142D01*
X108024819Y-89357142D02*
X108024819Y-89452380D01*
X108024819Y-89452380D02*
X107977200Y-89595237D01*
X107977200Y-89595237D02*
X107881961Y-89690475D01*
X107881961Y-89690475D02*
X107786723Y-89738094D01*
X107786723Y-89738094D02*
X107596247Y-89785713D01*
X107596247Y-89785713D02*
X107453390Y-89785713D01*
X107453390Y-89785713D02*
X107262914Y-89738094D01*
X107262914Y-89738094D02*
X107167676Y-89690475D01*
X107167676Y-89690475D02*
X107072438Y-89595237D01*
X107072438Y-89595237D02*
X107024819Y-89452380D01*
X107024819Y-89452380D02*
X107024819Y-89357142D01*
X107024819Y-89357142D02*
X107072438Y-89214285D01*
X107072438Y-89214285D02*
X107120057Y-89166666D01*
X108024819Y-88214285D02*
X108024819Y-88785713D01*
X108024819Y-88499999D02*
X107024819Y-88499999D01*
X107024819Y-88499999D02*
X107167676Y-88595237D01*
X107167676Y-88595237D02*
X107262914Y-88690475D01*
X107262914Y-88690475D02*
X107310533Y-88785713D01*
X109524819Y-87166666D02*
X109048628Y-87499999D01*
X109524819Y-87738094D02*
X108524819Y-87738094D01*
X108524819Y-87738094D02*
X108524819Y-87357142D01*
X108524819Y-87357142D02*
X108572438Y-87261904D01*
X108572438Y-87261904D02*
X108620057Y-87214285D01*
X108620057Y-87214285D02*
X108715295Y-87166666D01*
X108715295Y-87166666D02*
X108858152Y-87166666D01*
X108858152Y-87166666D02*
X108953390Y-87214285D01*
X108953390Y-87214285D02*
X109001009Y-87261904D01*
X109001009Y-87261904D02*
X109048628Y-87357142D01*
X109048628Y-87357142D02*
X109048628Y-87738094D01*
X108524819Y-86833332D02*
X108524819Y-86214285D01*
X108524819Y-86214285D02*
X108905771Y-86547618D01*
X108905771Y-86547618D02*
X108905771Y-86404761D01*
X108905771Y-86404761D02*
X108953390Y-86309523D01*
X108953390Y-86309523D02*
X109001009Y-86261904D01*
X109001009Y-86261904D02*
X109096247Y-86214285D01*
X109096247Y-86214285D02*
X109334342Y-86214285D01*
X109334342Y-86214285D02*
X109429580Y-86261904D01*
X109429580Y-86261904D02*
X109477200Y-86309523D01*
X109477200Y-86309523D02*
X109524819Y-86404761D01*
X109524819Y-86404761D02*
X109524819Y-86690475D01*
X109524819Y-86690475D02*
X109477200Y-86785713D01*
X109477200Y-86785713D02*
X109429580Y-86833332D01*
X133936666Y-86074819D02*
X133936666Y-86789104D01*
X133936666Y-86789104D02*
X133889047Y-86931961D01*
X133889047Y-86931961D02*
X133793809Y-87027200D01*
X133793809Y-87027200D02*
X133650952Y-87074819D01*
X133650952Y-87074819D02*
X133555714Y-87074819D01*
X134841428Y-86408152D02*
X134841428Y-87074819D01*
X134603333Y-86027200D02*
X134365238Y-86741485D01*
X134365238Y-86741485D02*
X134984285Y-86741485D01*
X114333333Y-100429580D02*
X114285714Y-100477200D01*
X114285714Y-100477200D02*
X114142857Y-100524819D01*
X114142857Y-100524819D02*
X114047619Y-100524819D01*
X114047619Y-100524819D02*
X113904762Y-100477200D01*
X113904762Y-100477200D02*
X113809524Y-100381961D01*
X113809524Y-100381961D02*
X113761905Y-100286723D01*
X113761905Y-100286723D02*
X113714286Y-100096247D01*
X113714286Y-100096247D02*
X113714286Y-99953390D01*
X113714286Y-99953390D02*
X113761905Y-99762914D01*
X113761905Y-99762914D02*
X113809524Y-99667676D01*
X113809524Y-99667676D02*
X113904762Y-99572438D01*
X113904762Y-99572438D02*
X114047619Y-99524819D01*
X114047619Y-99524819D02*
X114142857Y-99524819D01*
X114142857Y-99524819D02*
X114285714Y-99572438D01*
X114285714Y-99572438D02*
X114333333Y-99620057D01*
X115190476Y-99858152D02*
X115190476Y-100524819D01*
X114952381Y-99477200D02*
X114714286Y-100191485D01*
X114714286Y-100191485D02*
X115333333Y-100191485D01*
X105666666Y-103904819D02*
X105666666Y-104619104D01*
X105666666Y-104619104D02*
X105619047Y-104761961D01*
X105619047Y-104761961D02*
X105523809Y-104857200D01*
X105523809Y-104857200D02*
X105380952Y-104904819D01*
X105380952Y-104904819D02*
X105285714Y-104904819D01*
X106095238Y-104000057D02*
X106142857Y-103952438D01*
X106142857Y-103952438D02*
X106238095Y-103904819D01*
X106238095Y-103904819D02*
X106476190Y-103904819D01*
X106476190Y-103904819D02*
X106571428Y-103952438D01*
X106571428Y-103952438D02*
X106619047Y-104000057D01*
X106619047Y-104000057D02*
X106666666Y-104095295D01*
X106666666Y-104095295D02*
X106666666Y-104190533D01*
X106666666Y-104190533D02*
X106619047Y-104333390D01*
X106619047Y-104333390D02*
X106047619Y-104904819D01*
X106047619Y-104904819D02*
X106666666Y-104904819D01*
X125666666Y-113954819D02*
X125666666Y-114669104D01*
X125666666Y-114669104D02*
X125619047Y-114811961D01*
X125619047Y-114811961D02*
X125523809Y-114907200D01*
X125523809Y-114907200D02*
X125380952Y-114954819D01*
X125380952Y-114954819D02*
X125285714Y-114954819D01*
X126619047Y-113954819D02*
X126142857Y-113954819D01*
X126142857Y-113954819D02*
X126095238Y-114431009D01*
X126095238Y-114431009D02*
X126142857Y-114383390D01*
X126142857Y-114383390D02*
X126238095Y-114335771D01*
X126238095Y-114335771D02*
X126476190Y-114335771D01*
X126476190Y-114335771D02*
X126571428Y-114383390D01*
X126571428Y-114383390D02*
X126619047Y-114431009D01*
X126619047Y-114431009D02*
X126666666Y-114526247D01*
X126666666Y-114526247D02*
X126666666Y-114764342D01*
X126666666Y-114764342D02*
X126619047Y-114859580D01*
X126619047Y-114859580D02*
X126571428Y-114907200D01*
X126571428Y-114907200D02*
X126476190Y-114954819D01*
X126476190Y-114954819D02*
X126238095Y-114954819D01*
X126238095Y-114954819D02*
X126142857Y-114907200D01*
X126142857Y-114907200D02*
X126095238Y-114859580D01*
%TO.C,R13*%
D11*
X118262742Y-103977500D02*
X118737258Y-103977500D01*
X118262742Y-105022500D02*
X118737258Y-105022500D01*
%TO.C,R9*%
X131262742Y-100977500D02*
X131737258Y-100977500D01*
X131262742Y-102022500D02*
X131737258Y-102022500D01*
%TO.C,R6*%
X112262742Y-100977500D02*
X112737258Y-100977500D01*
X112262742Y-102022500D02*
X112737258Y-102022500D01*
%TO.C,U2*%
X117590000Y-89440000D02*
X119410000Y-89440000D01*
X117590000Y-89490000D02*
X117590000Y-89440000D01*
X117590000Y-92560000D02*
X117590000Y-92510000D01*
X119410000Y-89440000D02*
X119410000Y-89490000D01*
X119410000Y-90610000D02*
X119410000Y-91390000D01*
X119410000Y-92510000D02*
X119410000Y-92560000D01*
X119410000Y-92560000D02*
X117590000Y-92560000D01*
X117050000Y-89490000D02*
X116810000Y-89160000D01*
X117290000Y-89160000D01*
X117050000Y-89490000D01*
G36*
X117050000Y-89490000D02*
G01*
X116810000Y-89160000D01*
X117290000Y-89160000D01*
X117050000Y-89490000D01*
G37*
%TO.C,R4*%
X113977500Y-88737258D02*
X113977500Y-88262742D01*
X115022500Y-88737258D02*
X115022500Y-88262742D01*
%TO.C,R1*%
X105977500Y-86237258D02*
X105977500Y-85762742D01*
X107022500Y-86237258D02*
X107022500Y-85762742D01*
%TO.C,R8*%
X115977500Y-87237258D02*
X115977500Y-86762742D01*
X117022500Y-87237258D02*
X117022500Y-86762742D01*
%TO.C,R7*%
X117977500Y-88737258D02*
X117977500Y-88262742D01*
X119022500Y-88737258D02*
X119022500Y-88262742D01*
%TO.C,C6*%
X120359420Y-95990000D02*
X120640580Y-95990000D01*
X120359420Y-97010000D02*
X120640580Y-97010000D01*
%TO.C,D2*%
X115015000Y-83765000D02*
X115015000Y-85235000D01*
X115015000Y-85235000D02*
X117300000Y-85235000D01*
X117300000Y-83765000D02*
X115015000Y-83765000D01*
%TO.C,SW1*%
X102770000Y-108270000D02*
X109230000Y-108270000D01*
X102770000Y-108300000D02*
X102770000Y-108270000D01*
X102770000Y-110200000D02*
X102770000Y-112800000D01*
X102770000Y-114730000D02*
X102770000Y-114700000D01*
X102770000Y-114730000D02*
X109230000Y-114730000D01*
X109230000Y-108270000D02*
X109230000Y-108300000D01*
X109230000Y-110200000D02*
X109230000Y-112800000D01*
X109230000Y-114730000D02*
X109230000Y-114700000D01*
%TO.C,C3*%
X121355000Y-83990000D02*
X121355000Y-87010000D01*
X121355000Y-87010000D02*
X125750000Y-87010000D01*
X125750000Y-83990000D02*
X121355000Y-83990000D01*
%TO.C,R12*%
X116262742Y-103977500D02*
X116737258Y-103977500D01*
X116262742Y-105022500D02*
X116737258Y-105022500D01*
%TO.C,D1*%
X109015000Y-83765000D02*
X109015000Y-85235000D01*
X109015000Y-85235000D02*
X111300000Y-85235000D01*
X111300000Y-83765000D02*
X109015000Y-83765000D01*
%TO.C,C8*%
X138990000Y-105640580D02*
X138990000Y-105359420D01*
X140010000Y-105640580D02*
X140010000Y-105359420D01*
%TO.C,U1*%
X111590000Y-89440000D02*
X113410000Y-89440000D01*
X111590000Y-89490000D02*
X111590000Y-89440000D01*
X111590000Y-92560000D02*
X111590000Y-92510000D01*
X113410000Y-89440000D02*
X113410000Y-89490000D01*
X113410000Y-90610000D02*
X113410000Y-91390000D01*
X113410000Y-92510000D02*
X113410000Y-92560000D01*
X113410000Y-92560000D02*
X111590000Y-92560000D01*
X111050000Y-89490000D02*
X110810000Y-89160000D01*
X111290000Y-89160000D01*
X111050000Y-89490000D01*
G36*
X111050000Y-89490000D02*
G01*
X110810000Y-89160000D01*
X111290000Y-89160000D01*
X111050000Y-89490000D01*
G37*
%TO.C,J1*%
X102600000Y-87300000D02*
X104600000Y-87300000D01*
X102600000Y-96700000D02*
X104600000Y-96700000D01*
X106500000Y-87300000D02*
X108400000Y-87300000D01*
X106500000Y-96700000D02*
X108400000Y-96700000D01*
X108400000Y-96700000D02*
X108400000Y-87300000D01*
%TO.C,R2*%
X107977500Y-86237258D02*
X107977500Y-85762742D01*
X109022500Y-86237258D02*
X109022500Y-85762742D01*
%TO.C,J3*%
X116620000Y-107120000D02*
X118000000Y-107120000D01*
X116620000Y-108500000D02*
X116620000Y-107120000D01*
X116620000Y-109770000D02*
X116620000Y-120040000D01*
X116620000Y-109770000D02*
X119380000Y-109770000D01*
X116620000Y-120040000D02*
X119380000Y-120040000D01*
X119380000Y-109770000D02*
X119380000Y-120040000D01*
%TO.C,U3*%
X132740000Y-102740000D02*
X138260000Y-102740000D01*
X132740000Y-103010000D02*
X132740000Y-102740000D01*
X132740000Y-108260000D02*
X132740000Y-107990000D01*
X138260000Y-102740000D02*
X138260000Y-103010000D01*
X138260000Y-107990000D02*
X138260000Y-108260000D01*
X138260000Y-108260000D02*
X132740000Y-108260000D01*
X131910000Y-103000000D02*
X131570000Y-102530000D01*
X132250000Y-102530000D01*
X131910000Y-103000000D01*
G36*
X131910000Y-103000000D02*
G01*
X131570000Y-102530000D01*
X132250000Y-102530000D01*
X131910000Y-103000000D01*
G37*
%TO.C,C7*%
X138990000Y-102640580D02*
X138990000Y-102359420D01*
X140010000Y-102640580D02*
X140010000Y-102359420D01*
%TO.C,C5*%
X116359420Y-95990000D02*
X116640580Y-95990000D01*
X116359420Y-97010000D02*
X116640580Y-97010000D01*
%TO.C,R5*%
X110262742Y-100977500D02*
X110737258Y-100977500D01*
X110262742Y-102022500D02*
X110737258Y-102022500D01*
%TO.C,C2*%
X112359420Y-95990000D02*
X112640580Y-95990000D01*
X112359420Y-97010000D02*
X112640580Y-97010000D01*
%TO.C,C1*%
X108490000Y-89140580D02*
X108490000Y-88859420D01*
X109510000Y-89140580D02*
X109510000Y-88859420D01*
%TO.C,R3*%
X109977500Y-87237258D02*
X109977500Y-86762742D01*
X111022500Y-87237258D02*
X111022500Y-86762742D01*
%TO.C,J4*%
X131620000Y-87620000D02*
X133000000Y-87620000D01*
X131620000Y-89000000D02*
X131620000Y-87620000D01*
X131620000Y-90270000D02*
X131620000Y-108160000D01*
X131620000Y-90270000D02*
X134270000Y-90270000D01*
X131620000Y-108160000D02*
X136920000Y-108160000D01*
X134270000Y-87620000D02*
X136920000Y-87620000D01*
X134270000Y-90270000D02*
X134270000Y-87620000D01*
X136920000Y-87620000D02*
X136920000Y-108160000D01*
%TO.C,C4*%
X114359420Y-100990000D02*
X114640580Y-100990000D01*
X114359420Y-102010000D02*
X114640580Y-102010000D01*
%TO.C,J2*%
X102940000Y-105540000D02*
X102940000Y-113360000D01*
X102940000Y-107140000D02*
X103860000Y-107140000D01*
X102940000Y-113360000D02*
X109060000Y-113360000D01*
X103860000Y-105540000D02*
X102940000Y-105540000D01*
X103860000Y-107140000D02*
X103860000Y-105540000D01*
X104140000Y-107140000D02*
X103860000Y-107140000D01*
X104140000Y-107140000D02*
X104140000Y-105925000D01*
X104200000Y-111100000D02*
X104200000Y-113360000D01*
X104700000Y-111100000D02*
X104700000Y-113360000D01*
X105500000Y-109000000D02*
X106500000Y-109000000D01*
X105500000Y-113360000D02*
X105500000Y-109000000D01*
X106500000Y-109000000D02*
X106500000Y-113360000D01*
X108140000Y-105540000D02*
X108140000Y-107140000D01*
X108140000Y-107140000D02*
X107860000Y-107140000D01*
X109060000Y-105540000D02*
X108140000Y-105540000D01*
X109060000Y-107140000D02*
X108140000Y-107140000D01*
X109060000Y-113360000D02*
X109060000Y-105540000D01*
X103700000Y-109500000D02*
X104700000Y-109500000D01*
X104700000Y-111100000D01*
X103700000Y-111100000D01*
X103700000Y-109500000D01*
X107300000Y-109500000D02*
X108300000Y-109500000D01*
X108300000Y-111100000D01*
X107300000Y-111100000D01*
X107300000Y-109500000D01*
%TO.C,J5*%
X120040000Y-107540000D02*
X120040000Y-101060000D01*
X120040000Y-113110000D02*
X120040000Y-109860000D01*
X122110000Y-113110000D02*
X120040000Y-113110000D01*
X129520000Y-113680000D02*
X128820000Y-113680000D01*
X131240000Y-98890000D02*
X120760000Y-98890000D01*
X131960000Y-107540000D02*
X131960000Y-101060000D01*
X131960000Y-113110000D02*
X129880000Y-113110000D01*
X131960000Y-113110000D02*
X131960000Y-109860000D01*
%TD*%
M02*
