M48
; DRILL file KiCad 10.0.6 date 2026-10-09T16:56:44
; FORMAT={-:-/ absolute / metric / decimal}
; #@! TF.CreationDate,2026-10-09T16:56:44+05:30
; #@! TF.GenerationSoftware,Kicad,Pcbnew,10.0.6
; #@! TF.FileFunction,MixedPlating,1,4
FMAT,2
METRIC
; #@! TA.AperFunction,Plated,PTH,ComponentDrill
T1C0.600
; #@! TA.AperFunction,Plated,PTH,ComponentDrill
T2C0.750
; #@! TA.AperFunction,Plated,PTH,ComponentDrill
T3C1.000
; #@! TA.AperFunction,NonPlated,NPTH,ComponentDrill
T4C0.650
%
G90
G05
T2
X105.0Y-107.0
X107.0Y-107.0
T3
X118.0Y-108.5
X118.0Y-111.04
X118.0Y-113.58
X118.0Y-116.12
X118.0Y-118.66
X133.0Y-89.0
X133.0Y-91.54
X133.0Y-94.08
X133.0Y-96.62
X133.0Y-99.16
X133.0Y-101.7
X133.0Y-104.24
X133.0Y-106.78
X135.54Y-89.0
X135.54Y-91.54
X135.54Y-94.08
X135.54Y-96.62
X135.54Y-99.16
X135.54Y-101.7
X135.54Y-104.24
X135.54Y-106.78
T4
X101.9Y-89.11
X101.9Y-94.89
T1
X100.82Y-87.68G85X101.92Y-87.68
G05
X100.82Y-96.32G85X101.92Y-96.32
G05
X105.25Y-87.68G85X105.85Y-87.68
G05
X105.25Y-96.32G85X105.85Y-96.32
G05
M30
